<svg width="19" height="19" viewBox="0 0 19 19" fill="none" xmlns="http://www.w3.org/2000/svg">
<path d="M9.5 2.375H3.95833C3.53841 2.375 3.13568 2.54181 2.83875 2.83875C2.54181 3.13568 2.375 3.53841 2.375 3.95833V15.0417C2.375 15.4616 2.54181 15.8643 2.83875 16.1613C3.13568 16.4582 3.53841 16.625 3.95833 16.625H15.0417C15.4616 16.625 15.8643 16.4582 16.1613 16.1613C16.4582 15.8643 16.625 15.4616 16.625 15.0417V9.5" stroke="#6BA829" stroke-width="2" stroke-linecap="round" stroke-linejoin="round"/>
<path d="M14.5468 2.07782C14.8617 1.76287 15.2889 1.58594 15.7343 1.58594C16.1797 1.58594 16.6068 1.76287 16.9218 2.07782C17.2367 2.39276 17.4137 2.81992 17.4137 3.26532C17.4137 3.71071 17.2367 4.13787 16.9218 4.45282L9.7865 11.5889C9.59851 11.7767 9.36628 11.9142 9.1112 11.9887L6.83674 12.6537C6.76862 12.6736 6.69641 12.6747 6.62767 12.6571C6.55893 12.6395 6.49619 12.6038 6.44601 12.5536C6.39584 12.5034 6.36007 12.4407 6.34246 12.3719C6.32485 12.3032 6.32604 12.231 6.34591 12.1629L7.01091 9.8884C7.08574 9.63352 7.2235 9.40157 7.4115 9.2139L14.5468 2.07782Z" stroke="#6BA829" stroke-width="2" stroke-linecap="round" stroke-linejoin="round"/>
</svg>
