<svg width="19" height="21" viewBox="0 0 19 21" fill="none" xmlns="http://www.w3.org/2000/svg">
<path d="M17.5 6.02393L11.5 0.763932C10.95 0.271977 10.238 0 9.50003 0C8.7621 0 8.05006 0.271977 7.50003 0.763932L1.50003 6.02393C1.1824 6.30801 0.928934 6.65649 0.756506 7.04618C0.584077 7.43586 0.496646 7.85781 0.500034 8.28393V17.0239C0.500034 17.8196 0.816104 18.5826 1.37871 19.1453C1.94132 19.7079 2.70438 20.0239 3.50003 20.0239H15.5C16.2957 20.0239 17.0587 19.7079 17.6214 19.1453C18.184 18.5826 18.5 17.8196 18.5 17.0239V8.27393C18.502 7.84949 18.4139 7.42947 18.2415 7.04161C18.0691 6.65375 17.8164 6.30689 17.5 6.02393ZM11.5 18.0239H7.50003V13.0239C7.50003 12.7587 7.60539 12.5044 7.79293 12.3168C7.98046 12.1293 8.23482 12.0239 8.50003 12.0239H10.5C10.7653 12.0239 11.0196 12.1293 11.2071 12.3168C11.3947 12.5044 11.5 12.7587 11.5 13.0239V18.0239ZM16.5 17.0239C16.5 17.2891 16.3947 17.5435 16.2071 17.731C16.0196 17.9186 15.7653 18.0239 15.5 18.0239H13.5V13.0239C13.5 12.2283 13.184 11.4652 12.6214 10.9026C12.0587 10.34 11.2957 10.0239 10.5 10.0239H8.50003C7.70438 10.0239 6.94132 10.34 6.37871 10.9026C5.8161 11.4652 5.50003 12.2283 5.50003 13.0239V18.0239H3.50003C3.23482 18.0239 2.98046 17.9186 2.79293 17.731C2.60539 17.5435 2.50003 17.2891 2.50003 17.0239V8.27393C2.50021 8.13195 2.53063 7.99163 2.58925 7.86231C2.64788 7.73299 2.73337 7.61764 2.84003 7.52393L8.84003 2.27393C9.02252 2.11361 9.25713 2.0252 9.50003 2.0252C9.74294 2.0252 9.97754 2.11361 10.16 2.27393L16.16 7.52393C16.2667 7.61764 16.3522 7.73299 16.4108 7.86231C16.4694 7.99163 16.4999 8.13195 16.5 8.27393V17.0239Z" fill="#6BA829"/>
</svg>
