<svg width="26" height="24" viewBox="0 0 26 24" fill="none" xmlns="http://www.w3.org/2000/svg">
<path fill-rule="evenodd" clip-rule="evenodd" d="M1.66829e-07 1.1999C1.66829e-07 0.881666 0.124513 0.576467 0.346147 0.351442C0.56778 0.126418 0.868381 0 1.18182 0H14.1818C14.4953 0 14.7959 0.126418 15.0175 0.351442C15.2391 0.576467 15.3636 0.881666 15.3636 1.1999V7.1994H20.0909C20.8669 7.1994 21.6353 7.35458 22.3522 7.65608C23.0691 7.95758 23.7206 8.3995 24.2693 8.95661C24.818 9.51371 25.2532 10.1751 25.5502 10.903C25.8472 11.6309 26 12.411 26 13.1989V17.9985C26.0003 18.771 25.7559 19.5231 25.3028 20.1436C24.8497 20.7642 24.212 21.2203 23.4839 21.4446C23.2672 22.1705 22.8301 22.8084 22.2351 23.2672C21.64 23.7259 20.9175 23.9821 20.1705 23.9991C19.4236 24.0161 18.6904 23.7931 18.0757 23.362C17.461 22.9308 16.9962 22.3135 16.7475 21.5982H9.25364C9.00501 22.3135 8.54016 22.9308 7.92546 23.362C7.31075 23.7931 6.5776 24.0161 5.83065 23.9991C5.08371 23.9821 4.36116 23.7259 3.76613 23.2672C3.1711 22.8084 2.73402 22.1705 2.51727 21.4446C1.78898 21.2205 1.15103 20.7645 0.697709 20.1439C0.24439 19.5233 -0.000233209 18.7711 1.66829e-07 17.9985V13.1989H7.09091C7.40435 13.1989 7.70495 13.0725 7.92658 12.8475C8.14821 12.6224 8.27273 12.3172 8.27273 11.999C8.27273 11.6808 8.14821 11.3756 7.92658 11.1505C7.70495 10.9255 7.40435 10.7991 7.09091 10.7991H1.66829e-07V8.3993H4.72727C5.04071 8.3993 5.34131 8.27288 5.56294 8.04785C5.78458 7.82283 5.90909 7.51763 5.90909 7.1994C5.90909 6.88116 5.78458 6.57596 5.56294 6.35094C5.34131 6.12592 5.04071 5.9995 4.72727 5.9995H1.66829e-07V1.1999ZM15.3636 19.1984H16.7475C16.9812 18.527 17.4057 17.941 17.9674 17.5146C18.5291 17.0882 19.2027 16.8405 19.9031 16.8029C20.6035 16.7652 21.2991 16.9394 21.902 17.3032C22.5049 17.667 22.988 18.2042 23.2901 18.8468C23.5117 18.6218 23.6363 18.3167 23.6364 17.9985V13.1989C23.6364 12.2442 23.2628 11.3286 22.5979 10.6535C21.933 9.97845 21.0312 9.5992 20.0909 9.5992H15.3636V19.1984ZM7.09091 20.3983C7.09091 20.0801 6.9664 19.7749 6.74476 19.5498C6.52313 19.3248 6.22253 19.1984 5.90909 19.1984C5.59565 19.1984 5.29505 19.3248 5.07342 19.5498C4.85179 19.7749 4.72727 20.0801 4.72727 20.3983C4.72727 20.7165 4.85179 21.0217 5.07342 21.2467C5.29505 21.4718 5.59565 21.5982 5.90909 21.5982C6.22253 21.5982 6.52313 21.4718 6.74476 21.2467C6.9664 21.0217 7.09091 20.7165 7.09091 20.3983ZM19.2554 19.55C19.0337 19.7749 18.9092 20.0801 18.9091 20.3983C18.909 20.6759 19.0038 20.9449 19.1772 21.1596C19.3506 21.3742 19.592 21.5211 19.8601 21.5753C20.1283 21.6296 20.4067 21.5877 20.6478 21.4569C20.889 21.3261 21.078 21.1144 21.1827 20.8579C21.2874 20.6015 21.3012 20.3161 21.2219 20.0504C21.1426 19.7848 20.975 19.5552 20.7477 19.401C20.5203 19.2467 20.2474 19.1772 19.9753 19.2044C19.7031 19.2316 19.4487 19.3537 19.2554 19.55Z" fill="#6BA829"/>
</svg>
