<svg width="19" height="21" viewBox="0 0 19 21" fill="none" xmlns="http://www.w3.org/2000/svg">
<path d="M15.0022 6C15.0022 6.262 14.9855 6.52 14.9522 6.774C16.2628 7.51013 17.2493 8.71141 17.7166 10.1401C18.1839 11.5688 18.0979 13.1209 17.4756 14.4893C16.8533 15.8576 15.74 16.9425 14.3561 17.5293C12.9721 18.1161 11.4183 18.162 10.0022 17.658V21H8.00215V17.4C6.84935 17.9889 5.52576 18.1523 4.26433 17.8615C3.0029 17.5707 1.88449 16.8442 1.10592 15.81C0.327354 14.7758 -0.061461 13.5001 0.00790647 12.2074C0.077274 10.9147 0.600378 9.68797 1.48515 8.743C1.87592 9.81282 2.49063 10.7869 3.28815 11.6L4.71615 10.2C3.61721 9.07824 3.00185 7.57035 3.00215 6C3.00215 4.4087 3.63429 2.88258 4.75951 1.75736C5.88473 0.632141 7.41085 0 9.00215 0C10.5935 0 12.1196 0.632141 13.2448 1.75736C14.37 2.88258 15.0022 4.4087 15.0022 6Z" fill="#6BA829"/>
</svg>
