<svg width="18" height="21" viewBox="0 0 18 21" fill="none" xmlns="http://www.w3.org/2000/svg">
<path d="M3.00251 5.99798C3.00278 5.17751 3.17133 4.36581 3.49773 3.61306C3.82413 2.86031 4.30145 2.18251 4.90019 1.62153C5.49892 1.06056 6.20634 0.628349 6.97873 0.351608C7.75112 0.074867 8.57206 -0.0405201 9.39081 0.0125787C10.2096 0.0656776 11.0087 0.286134 11.7389 0.660321C12.4691 1.03451 13.1147 1.55448 13.636 2.18808C14.1573 2.82169 14.543 3.55547 14.7695 4.34408C14.9959 5.13268 15.0582 5.95935 14.9525 6.77298C16.1071 7.42473 17.0133 8.44055 17.5295 9.66175C18.0458 10.8829 18.143 12.2407 17.806 13.523C17.469 14.8053 16.7168 15.9399 15.6668 16.7495C14.6169 17.5591 13.3283 17.9981 12.0025 17.998H10.0025V20.998H8.00251V17.998H5.50251C4.24874 17.9985 3.0324 17.5707 2.05504 16.7854C1.07768 16.0001 0.397967 14.9045 0.12852 13.68C-0.140927 12.4555 0.0160676 11.1757 0.573492 10.0527C1.13092 8.92965 2.05531 8.03076 3.19351 7.50498C3.06625 7.01277 3.00207 6.50638 3.00251 5.99798ZM4.01251 9.32998C3.29385 9.66974 2.71217 10.2439 2.36307 10.9581C2.01398 11.6722 1.91824 12.4839 2.09159 13.2597C2.26495 14.0355 2.69708 14.7292 3.31696 15.2269C3.93684 15.7245 4.70759 15.9964 5.50251 15.998H12.0025C12.9358 15.999 13.84 15.6736 14.5587 15.0781C15.2773 14.4827 15.7651 13.6548 15.9377 12.7376C16.1103 11.8204 15.9567 10.8718 15.5036 10.0559C15.0505 9.24001 14.3263 8.60825 13.4565 8.26998L12.6155 7.94198C12.7925 7.30198 13.0025 6.66998 13.0025 5.99798C13.0025 5.31615 12.8282 4.64564 12.4962 4.05012C12.1642 3.4546 11.6854 2.95383 11.1054 2.59538C10.5254 2.23692 9.86344 2.03267 9.1823 2.00202C8.50116 1.97137 7.8235 2.11535 7.21365 2.42027C6.60381 2.72519 6.08203 3.18094 5.69786 3.74424C5.3137 4.30754 5.0799 4.95969 5.01867 5.63876C4.95744 6.31783 5.0708 7.00128 5.34801 7.62421C5.62521 8.24715 6.05704 8.78888 6.60251 9.19798L5.40251 10.798C4.85948 10.3908 4.38947 9.89441 4.01251 9.32998Z" fill="black"/>
</svg>
