<svg width="50" height="50" viewBox="0 0 50 50" fill="none" xmlns="http://www.w3.org/2000/svg">
<path d="M18.003 6.75C18.003 5.75544 18.3981 4.80161 19.1014 4.09835C19.8046 3.39509 20.7584 3 21.753 3H29.253C30.132 2.99988 30.9831 3.30853 31.6577 3.87206C32.3322 4.43558 32.7874 5.21816 32.9437 6.08314C33.1 6.94811 32.9475 7.84051 32.5129 8.60449C32.0782 9.36847 31.3889 9.95547 30.5655 10.263C30.8655 11.7855 31.8855 13.044 33.4275 14.571C35.1787 15.84 36.5991 17.5116 37.5687 19.4448C38.5383 21.378 39.0287 23.516 38.9985 25.6785V25.719L39 25.8V39C38.9999 40.1303 38.6804 41.2376 38.0785 42.1944C37.4766 43.1511 36.6166 43.9184 35.5977 44.4077C34.5788 44.8971 33.4424 45.0887 32.3194 44.9605C31.1963 44.8323 30.1324 44.3895 29.25 43.683C28.1859 44.5353 26.8633 44.9998 25.5 45C24.1367 44.9998 22.8141 44.5353 21.75 43.683C20.8676 44.3895 19.8037 44.8323 18.6806 44.9605C17.5576 45.0887 16.4212 44.8971 15.4023 44.4077C14.3834 43.9184 13.5234 43.1511 12.9215 42.1944C12.3196 41.2376 12.0002 40.1303 12 39V25.4985C11.996 22.2568 13.1626 19.1227 15.285 16.6725C15.797 16.0805 16.356 15.537 16.962 15.042C18.7845 13.278 19.998 11.922 20.3145 10.215C19.6299 9.93061 19.0449 9.44967 18.6334 8.83294C18.222 8.21621 18.0026 7.49137 18.003 6.75ZM21.753 6C21.5541 6 21.3633 6.07902 21.2227 6.21967C21.082 6.36032 21.003 6.55109 21.003 6.75C21.003 6.94891 21.082 7.13968 21.2227 7.28033C21.3633 7.42098 21.5541 7.5 21.753 7.5H29.253C29.4519 7.5 29.6427 7.42098 29.7833 7.28033C29.924 7.13968 30.003 6.94891 30.003 6.75C30.003 6.55109 29.924 6.36032 29.7833 6.21967C29.6427 6.07902 29.4519 6 29.253 6H21.753ZM19.7595 16.5H31.113C29.583 14.967 28.0725 13.197 27.615 10.8H23.256C22.8 13.1865 21.2955 14.9625 19.7595 16.5ZM15 39C15 39.6445 15.2076 40.2719 15.5921 40.7893C15.9765 41.3066 16.5173 41.6864 17.1344 41.8724C17.7516 42.0583 18.4122 42.0406 19.0184 41.8218C19.6247 41.603 20.1444 41.1947 20.5005 40.6575C20.6374 40.4514 20.8231 40.2824 21.0411 40.1655C21.2591 40.0486 21.5026 39.9874 21.75 39.9874C21.9974 39.9874 22.2409 40.0486 22.4589 40.1655C22.6769 40.2824 22.8626 40.4514 22.9995 40.6575C23.2726 41.0709 23.644 41.4101 24.0804 41.6448C24.5168 41.8795 25.0045 42.0024 25.5 42.0024C25.9955 42.0024 26.4832 41.8795 26.9196 41.6448C27.356 41.4101 27.7274 41.0709 28.0005 40.6575C28.1374 40.4514 28.3231 40.2824 28.5411 40.1655C28.7591 40.0486 29.0026 39.9874 29.25 39.9874C29.4974 39.9874 29.7409 40.0486 29.9589 40.1655C30.1769 40.2824 30.3626 40.4514 30.4995 40.6575C30.8556 41.1947 31.3753 41.603 31.9816 41.8218C32.5878 42.0406 33.2484 42.0583 33.8656 41.8724C34.4827 41.6864 35.0235 41.3066 35.408 40.7893C35.7924 40.2719 36 39.6445 36 39V36H15V39Z" fill="white"/>
</svg>
