<svg width="57" height="57" viewBox="0 0 57 57" fill="none" xmlns="http://www.w3.org/2000/svg">
<path d="M22.003 11.75C22.003 10.7554 22.3981 9.80161 23.1014 9.09835C23.8046 8.39509 24.7584 8 25.753 8H33.253C34.132 7.99988 34.9831 8.30853 35.6577 8.87206C36.3322 9.43558 36.7874 10.2182 36.9437 11.0831C37.1 11.9481 36.9475 12.8405 36.5129 13.6045C36.0782 14.3685 35.3889 14.9555 34.5655 15.263C34.8655 16.7855 35.8855 18.044 37.4275 19.571C39.1787 20.84 40.5991 22.5116 41.5687 24.4448C42.5383 26.378 43.0287 28.516 42.9985 30.6785V30.719L43 30.8V44C42.9999 45.1303 42.6804 46.2376 42.0785 47.1944C41.4766 48.1511 40.6166 48.9184 39.5977 49.4077C38.5788 49.8971 37.4424 50.0887 36.3194 49.9605C35.1963 49.8323 34.1324 49.3895 33.25 48.683C32.1859 49.5353 30.8633 49.9998 29.5 50C28.1367 49.9998 26.8141 49.5353 25.75 48.683C24.8676 49.3895 23.8037 49.8323 22.6806 49.9605C21.5576 50.0887 20.4212 49.8971 19.4023 49.4077C18.3834 48.9184 17.5234 48.1511 16.9215 47.1944C16.3196 46.2376 16.0002 45.1303 16 44V30.4985C15.996 27.2568 17.1626 24.1227 19.285 21.6725C19.797 21.0805 20.356 20.537 20.962 20.042C22.7845 18.278 23.998 16.922 24.3145 15.215C23.6299 14.9306 23.0449 14.4497 22.6334 13.8329C22.222 13.2162 22.0026 12.4914 22.003 11.75ZM25.753 11C25.5541 11 25.3633 11.079 25.2227 11.2197C25.082 11.3603 25.003 11.5511 25.003 11.75C25.003 11.9489 25.082 12.1397 25.2227 12.2803C25.3633 12.421 25.5541 12.5 25.753 12.5H33.253C33.4519 12.5 33.6427 12.421 33.7833 12.2803C33.924 12.1397 34.003 11.9489 34.003 11.75C34.003 11.5511 33.924 11.3603 33.7833 11.2197C33.6427 11.079 33.4519 11 33.253 11H25.753ZM23.7595 21.5H35.113C33.583 19.967 32.0725 18.197 31.615 15.8H27.256C26.8 18.1865 25.2955 19.9625 23.7595 21.5ZM19 44C19 44.6445 19.2076 45.2719 19.5921 45.7893C19.9765 46.3066 20.5173 46.6864 21.1344 46.8724C21.7516 47.0583 22.4122 47.0406 23.0184 46.8218C23.6247 46.603 24.1444 46.1947 24.5005 45.6575C24.6374 45.4514 24.8231 45.2824 25.0411 45.1655C25.2591 45.0486 25.5026 44.9874 25.75 44.9874C25.9974 44.9874 26.2409 45.0486 26.4589 45.1655C26.6769 45.2824 26.8626 45.4514 26.9995 45.6575C27.2726 46.0709 27.644 46.4101 28.0804 46.6448C28.5168 46.8795 29.0045 47.0024 29.5 47.0024C29.9955 47.0024 30.4832 46.8795 30.9196 46.6448C31.356 46.4101 31.7274 46.0709 32.0005 45.6575C32.1374 45.4514 32.3231 45.2824 32.5411 45.1655C32.7591 45.0486 33.0026 44.9874 33.25 44.9874C33.4974 44.9874 33.7409 45.0486 33.9589 45.1655C34.1769 45.2824 34.3626 45.4514 34.4995 45.6575C34.8556 46.1947 35.3753 46.603 35.9816 46.8218C36.5878 47.0406 37.2484 47.0583 37.8656 46.8724C38.4827 46.6864 39.0235 46.3066 39.408 45.7893C39.7924 45.2719 40 44.6445 40 44V41H19V44Z" fill="#F4DD00" stroke="black"/>
</svg>
