<svg width="35" height="45" viewBox="0 0 35 45" fill="none" xmlns="http://www.w3.org/2000/svg">
<path d="M19.625 16.05V4.225L31.3125 16.05M4.75 1C2.39125 1 0.5 2.9135 0.5 5.3V39.7C0.5 40.8404 0.947766 41.9342 1.7448 42.7406C2.54183 43.547 3.62283 44 4.75 44H30.25C31.3772 44 32.4582 43.547 33.2552 42.7406C34.0522 41.9342 34.5 40.8404 34.5 39.7V13.9L21.75 1H4.75Z" fill="#3A8CD7"/>
<path d="M19.625 16.05V4.225L31.3125 16.05M4.75 1C2.39125 1 0.5 2.9135 0.5 5.3V39.7C0.5 40.8404 0.947766 41.9342 1.7448 42.7406C2.54183 43.547 3.62283 44 4.75 44H30.25C31.3772 44 32.4582 43.547 33.2552 42.7406C34.0522 41.9342 34.5 40.8404 34.5 39.7V13.9L21.75 1H4.75Z" stroke="black"/>
</svg>
