<svg width="37" height="45" viewBox="0 0 37 45" fill="none" xmlns="http://www.w3.org/2000/svg">
<path d="M7.7 7.27162C7.69982 6.02586 8.07243 4.80828 8.7703 3.77417C9.46818 2.74005 10.4597 1.93627 11.6184 1.46534C12.7771 0.9944 14.0505 0.877655 15.2761 1.12999C16.5017 1.38232 17.6241 1.9923 18.5 2.88213C19.3759 1.9923 20.4983 1.38232 21.7239 1.12999C22.9495 0.877655 24.2229 0.9944 25.3816 1.46534C26.5403 1.93627 27.5318 2.74005 28.2297 3.77417C28.9276 4.80828 29.3002 6.02586 29.3 7.27162V11.7507H33.8C34.5161 11.7507 35.2028 12.0338 35.7092 12.5378C36.2155 13.0418 36.5 13.7254 36.5 14.4381V38.1772C36.5002 39.707 35.8954 41.1755 34.8166 42.2651C33.7377 43.3547 32.2714 43.9779 30.7346 44H30.5654C29.0286 43.9779 27.5623 43.3547 26.4834 42.2651C25.4046 41.1755 24.7998 39.707 24.8 38.1772V11.7507H26.6V7.27162C26.5998 6.49987 26.3494 5.7488 25.8858 5.13015C25.4223 4.51151 24.7705 4.05835 24.0274 3.8381C23.2843 3.61786 22.4896 3.6423 21.7616 3.90779C21.0335 4.17328 20.4111 4.66562 19.9868 5.31157C20.1951 5.94423 20.3008 6.60586 20.3 7.27162V11.7507H22.1V38.1772C22.1 40.4293 22.9784 42.4771 24.4148 44H7.7C5.79044 44 3.95909 43.245 2.60883 41.901C1.25857 40.557 0.5 38.7342 0.5 36.8335V14.4381C0.5 13.7254 0.784463 13.0418 1.29081 12.5378C1.79716 12.0338 2.48392 11.7507 3.2 11.7507H7.7V7.27162ZM17.6 7.27162C17.6 6.32128 17.2207 5.40986 16.5456 4.73787C15.8705 4.06588 14.9548 3.68836 14 3.68836C13.0452 3.68836 12.1295 4.06588 11.4544 4.73787C10.7793 5.40986 10.4 6.32128 10.4 7.27162V11.7507H17.6V7.27162Z" fill="#F4DD00" stroke="black"/>
</svg>
