<svg width="37" height="43" viewBox="0 0 37 43" fill="none" xmlns="http://www.w3.org/2000/svg">
<path d="M7.7 6.27162C7.69982 5.02586 8.07243 3.80828 8.7703 2.77417C9.46818 1.74005 10.4597 0.936271 11.6184 0.465335C12.7771 -0.00560025 14.0505 -0.122345 15.2761 0.129989C16.5017 0.382324 17.6241 0.992301 18.5 1.88213C19.3759 0.992301 20.4983 0.382324 21.7239 0.129989C22.9495 -0.122345 24.2229 -0.00560025 25.3816 0.465335C26.5403 0.936271 27.5318 1.74005 28.2297 2.77417C28.9276 3.80828 29.3002 5.02586 29.3 6.27162V10.7507H33.8C34.5161 10.7507 35.2028 11.0338 35.7092 11.5378C36.2155 12.0418 36.5 12.7254 36.5 13.4381V37.1772C36.5002 38.707 35.8954 40.1755 34.8166 41.2651C33.7377 42.3547 32.2714 42.9779 30.7346 43H30.5654C29.0286 42.9779 27.5623 42.3547 26.4834 41.2651C25.4046 40.1755 24.7998 38.707 24.8 37.1772V10.7507H26.6V6.27162C26.5998 5.49987 26.3494 4.7488 25.8858 4.13015C25.4223 3.51151 24.7705 3.05835 24.0274 2.8381C23.2843 2.61786 22.4896 2.6423 21.7616 2.90779C21.0335 3.17328 20.4111 3.66562 19.9868 4.31157C20.1951 4.94423 20.3008 5.60586 20.3 6.27162V10.7507H22.1V37.1772C22.1 39.4293 22.9784 41.4771 24.4148 43H7.7C5.79044 43 3.95909 42.245 2.60883 40.901C1.25857 39.557 0.5 37.7342 0.5 35.8335V13.4381C0.5 12.7254 0.784463 12.0418 1.29081 11.5378C1.79716 11.0338 2.48392 10.7507 3.2 10.7507H7.7V6.27162ZM17.6 6.27162C17.6 5.32128 17.2207 4.40986 16.5456 3.73787C15.8705 3.06588 14.9548 2.68836 14 2.68836C13.0452 2.68836 12.1295 3.06588 11.4544 3.73787C10.7793 4.40986 10.4 5.32128 10.4 6.27162V10.7507H17.6V6.27162Z" fill="white"/>
</svg>
