<svg width="43" height="43" viewBox="0 0 43 43" fill="none" xmlns="http://www.w3.org/2000/svg">
<path d="M32.3575 41.2082H35.3317C36.8367 41.2082 38.0729 40.0436 38.2521 38.5744L41.2084 9.04775H32.25V1.7915H28.7204V9.04775H19.8159L20.3534 13.2403C23.4171 14.0823 26.2838 15.6053 28.0038 17.2894C30.5838 19.8336 32.3575 22.4673 32.3575 26.7673V41.2082ZM1.79169 39.4165V37.6248H28.7204V39.4165C28.7204 40.384 27.9142 41.2082 26.875 41.2082H3.58335C2.59794 41.2082 1.79169 40.384 1.79169 39.4165ZM28.7204 26.8748C28.7204 12.5415 1.79169 12.5415 1.79169 26.8748H28.7204ZM1.79169 30.4582H28.6667V34.0415H1.79169V30.4582Z" fill="#40B740" stroke="black"/>
</svg>
