<svg width="41" height="41" viewBox="0 0 41 41" fill="none" xmlns="http://www.w3.org/2000/svg">
<path d="M31.3575 40.2082H34.3317C35.8367 40.2082 37.0729 39.0436 37.2521 37.5744L40.2084 8.04775H31.25V0.791504H27.7204V8.04775H18.8159L19.3534 12.2403C22.4171 13.0823 25.2838 14.6053 27.0038 16.2894C29.5838 18.8336 31.3575 21.4673 31.3575 25.7673V40.2082ZM0.791687 38.4165V36.6248H27.7204V38.4165C27.7204 39.384 26.9142 40.2082 25.875 40.2082H2.58335C1.59794 40.2082 0.791687 39.384 0.791687 38.4165ZM27.7204 25.8748C27.7204 11.5415 0.791687 11.5415 0.791687 25.8748H27.7204ZM0.791687 29.4582H27.6667V33.0415H0.791687V29.4582Z" fill="white"/>
</svg>
